{
  "accessors": [
    {
      "bufferView": 1,
      "componentType": 5126,
      "count": 65532,
      "max": [
        -1.271051287651062,
        0.6622329950332642,
        1.2657372951507568
      ],
      "min": [
        -2.3271923065185547,
        -0.43201538920402527,
        0.001026403740979731
      ],
      "type": "VEC3"
    },
    {
      "bufferView": 1,
      "byteOffset": 786384,
      "componentType": 5126,
      "count": 65532,
      "max": [
        0.9999188780784607,
        0.999991774559021,
        0.9999849796295166
      ],
      "min": [
        -0.9999977946281433,
        -0.9998530149459839,
        -0.988279402256012
      ],
      "type": "VEC3"
    },
    {
      "bufferView": 2,
      "componentType": 5126,
      "count": 65532,
      "max": [
        0.95686274766922,
        0.8588235378265381,
        0.615686297416687,
        1.0
      ],
      "min": [
        0.13725490868091583,
        0.21568627655506134,
        0.0941176488995552,
        1.0
      ],
      "type": "VEC4"
    },
    {
      "bufferView": 0,
      "componentType": 5125,
      "count": 322017,
      "type": "SCALAR"
    },
    {
      "bufferView": 1,
      "byteOffset": 1572768,
      "componentType": 5126,
      "count": 65532,
      "max": [
        -1.4491775035858154,
        0.6383434534072876,
        1.1119695901870728
      ],
      "min": [
        -2.3271923065185547,
        -0.5850825309753418,
        -0.3494432866573334
      ],
      "type": "VEC3"
    },
    {
      "bufferView": 1,
      "byteOffset": 2359152,
      "componentType": 5126,
      "count": 65532,
      "max": [
        0.9942653179168701,
        0.9999821782112122,
        0.9999858736991882
      ],
      "min": [
        -0.9999977946281433,
        -0.999979555606842,
        -0.9996952414512634
      ],
      "type": "VEC3"
    },
    {
      "bufferView": 2,
      "byteOffset": 1048512,
      "componentType": 5126,
      "count": 65532,
      "max": [
        0.9529411792755127,
        0.8745098114013672,
        0.48627451062202454,
        1.0
      ],
      "min": [
        0.1764705926179886,
        0.16862745583057404,
        0.0784313753247261,
        1.0
      ],
      "type": "VEC4"
    },
    {
      "bufferView": 0,
      "byteOffset": 1288068,
      "componentType": 5125,
      "count": 333144,
      "type": "SCALAR"
    },
    {
      "bufferView": 1,
      "byteOffset": 3145536,
      "componentType": 5126,
      "count": 65532,
      "max": [
        -1.1864103078842163,
        0.5722075700759888,
        1.2419753074645996
      ],
      "min": [
        -2.1879355907440186,
        -0.6318783760070801,
        0.5418851375579834
      ],
      "type": "VEC3"
    },
    {
      "bufferView": 1,
      "byteOffset": 3931920,
      "componentType": 5126,
      "count": 65532,
      "max": [
        0.9999710321426392,
        0.9999808669090271,
        0.9999961256980896
      ],
      "min": [
        -0.9999083280563354,
        -0.9999949336051941,
        -0.999180257320404
      ],
      "type": "VEC3"
    },
    {
      "bufferView": 2,
      "byteOffset": 2097024,
      "componentType": 5126,
      "count": 65532,
      "max": [
        0.95686274766922,
        0.8745098114013672,
        0.6196078658103943,
        1.0
      ],
      "min": [
        0.09019608050584793,
        0.2235294133424759,
        0.05098039284348488,
        1.0
      ],
      "type": "VEC4"
    },
    {
      "bufferView": 0,
      "byteOffset": 2620644,
      "componentType": 5125,
      "count": 325650,
      "type": "SCALAR"
    },
    {
      "bufferView": 1,
      "byteOffset": 4718304,
      "componentType": 5126,
      "count": 65532,
      "max": [
        -1.0661073923110962,
        0.663936972618103,
        1.2595412731170654
      ],
      "min": [
        -2.227572202682495,
        -0.3029877245426178,
        0.3164832293987274
      ],
      "type": "VEC3"
    },
    {
      "bufferView": 1,
      "byteOffset": 5504688,
      "componentType": 5126,
      "count": 65532,
      "max": [
        0.9999831318855286,
        0.9999847412109375,
        0.9999746680259705
      ],
      "min": [
        -0.999941885471344,
        -0.9997240304946899,
        -0.964087188243866
      ],
      "type": "VEC3"
    },
    {
      "bufferView": 2,
      "byteOffset": 3145536,
      "componentType": 5126,
      "count": 65532,
      "max": [
        0.95686274766922,
        0.7764706015586853,
        0.5254902243614197,
        1.0
      ],
      "min": [
        0.09019608050584793,
        0.2235294133424759,
        0.054901961237192154,
        1.0
      ],
      "type": "VEC4"
    },
    {
      "bufferView": 0,
      "byteOffset": 3923244,
      "componentType": 5125,
      "count": 328380,
      "type": "SCALAR"
    },
    {
      "bufferView": 1,
      "byteOffset": 6291072,
      "componentType": 5126,
      "count": 65532,
      "max": [
        -1.065271019935608,
        0.4750898778438568,
        1.1815526485443115
      ],
      "min": [
        -1.6852238178253174,
        -0.4703991413116455,
        -0.434236615896225
      ],
      "type": "VEC3"
    },
    {
      "bufferView": 1,
      "byteOffset": 7077456,
      "componentType": 5126,
      "count": 65532,
      "max": [
        0.9999991059303284,
        0.9998440146446228,
        0.9999718070030212
      ],
      "min": [
        -0.9563655257225037,
        -0.9999455213546753,
        -0.999478280544281
      ],
      "type": "VEC3"
    },
    {
      "bufferView": 2,
      "byteOffset": 4194048,
      "componentType": 5126,
      "count": 65532,
      "max": [
        0.9529411792755127,
        0.8235294222831726,
        0.545098066329956,
        1.0
      ],
      "min": [
        0.1568627506494522,
        0.1725490242242813,
        0.08235294371843338,
        1.0
      ],
      "type": "VEC4"
    },
    {
      "bufferView": 0,
      "byteOffset": 5236764,
      "componentType": 5125,
      "count": 340623,
      "type": "SCALAR"
    },
    {
      "bufferView": 1,
      "byteOffset": 7863840,
      "componentType": 5126,
      "count": 65532,
      "max": [
        -1.2107620239257813,
        0.3308822810649872,
        0.9275833964347839
      ],
      "min": [
        -2.2869153022766113,
        -0.6390759944915771,
        -0.30695703625679016
      ],
      "type": "VEC3"
    },
    {
      "bufferView": 1,
      "byteOffset": 8650224,
      "componentType": 5126,
      "count": 65532,
      "max": [
        0.9999576210975647,
        0.9999032020568848,
        0.9979085326194763
      ],
      "min": [
        -0.9999574422836304,
        -0.9999988675117493,
        -0.9997888803482056
      ],
      "type": "VEC3"
    },
    {
      "bufferView": 2,
      "byteOffset": 5242560,
      "componentType": 5126,
      "count": 65532,
      "max": [
        0.9607843160629272,
        0.7490196228027344,
        0.4627451002597809,
        1.0
      ],
      "min": [
        0.501960813999176,
        0.1725490242242813,
        0.0784313753247261,
        1.0
      ],
      "type": "VEC4"
    },
    {
      "bufferView": 0,
      "byteOffset": 6599256,
      "componentType": 5125,
      "count": 340476,
      "type": "SCALAR"
    },
    {
      "bufferView": 1,
      "byteOffset": 9436608,
      "componentType": 5126,
      "count": 65532,
      "max": [
        -1.0627880096435547,
        0.613594651222229,
        0.918195366859436
      ],
      "min": [
        -2.168673038482666,
        -0.6122615337371826,
        -0.5421050190925598
      ],
      "type": "VEC3"
    },
    {
      "bufferView": 1,
      "byteOffset": 10222992,
      "componentType": 5126,
      "count": 65532,
      "max": [
        0.9999899864196777,
        0.9999282360076904,
        0.9985588788986206
      ],
      "min": [
        -0.9992884397506714,
        -0.999626874923706,
        -0.9983296394348145
      ],
      "type": "VEC3"
    },
    {
      "bufferView": 2,
      "byteOffset": 6291072,
      "componentType": 5126,
      "count": 65532,
      "max": [
        0.9607843160629272,
        0.7490196228027344,
        0.4431372582912445,
        1.0
      ],
      "min": [
        0.5490196347236633,
        0.16078431904315948,
        0.07450980693101883,
        1.0
      ],
      "type": "VEC4"
    },
    {
      "bufferView": 0,
      "byteOffset": 7961160,
      "componentType": 5125,
      "count": 328491,
      "type": "SCALAR"
    },
    {
      "bufferView": 1,
      "byteOffset": 11009376,
      "componentType": 5126,
      "count": 65532,
      "max": [
        -1.068650722503662,
        0.6570799946784973,
        1.2817670106887817
      ],
      "min": [
        -2.3231112957000732,
        -0.6237281560897827,
        -0.5283139944076538
      ],
      "type": "VEC3"
    },
    {
      "bufferView": 1,
      "byteOffset": 11795760,
      "componentType": 5126,
      "count": 65532,
      "max": [
        0.9999188780784607,
        0.9999724626541138,
        0.9998467564582825
      ],
      "min": [
        -0.9999853372573853,
        -0.9998881220817566,
        -0.9997636079788208
      ],
      "type": "VEC3"
    },
    {
      "bufferView": 2,
      "byteOffset": 7339584,
      "componentType": 5126,
      "count": 65532,
      "max": [
        0.9607843160629272,
        0.8745098114013672,
        0.5647059082984924,
        1.0
      ],
      "min": [
        0.09019608050584793,
        0.16078431904315948,
        0.05098039284348488,
        1.0
      ],
      "type": "VEC4"
    },
    {
      "bufferView": 0,
      "byteOffset": 9275124,
      "componentType": 5125,
      "count": 250314,
      "type": "SCALAR"
    },
    {
      "bufferView": 1,
      "byteOffset": 12582144,
      "componentType": 5126,
      "count": 65532,
      "max": [
        -1.06500244140625,
        0.3599388301372528,
        0.8933340311050415
      ],
      "min": [
        -2.1267025470733643,
        -0.6368150115013123,
        -0.5403919816017151
      ],
      "type": "VEC3"
    },
    {
      "bufferView": 1,
      "byteOffset": 13368528,
      "componentType": 5126,
      "count": 65532,
      "max": [
        0.99998939037323,
        0.9997760057449341,
        0.998405396938324
      ],
      "min": [
        -0.9995787143707275,
        -0.9999758005142212,
        -0.9989041686058044
      ],
      "type": "VEC3"
    },
    {
      "bufferView": 2,
      "byteOffset": 8388096,
      "componentType": 5126,
      "count": 65532,
      "max": [
        0.95686274766922,
        0.7215686440467834,
        0.3921568691730499,
        1.0
      ],
      "min": [
        0.5490196347236633,
        0.16078431904315948,
        0.07450980693101883,
        1.0
      ],
      "type": "VEC4"
    },
    {
      "bufferView": 0,
      "byteOffset": 10276380,
      "componentType": 5125,
      "count": 311463,
      "type": "SCALAR"
    },
    {
      "bufferView": 1,
      "byteOffset": 14154912,
      "componentType": 5126,
      "count": 25475,
      "max": [
        -1.211907982826233,
        0.41462910175323486,
        0.5823420286178589
      ],
      "min": [
        -2.1093642711639404,
        -0.6390759944915771,
        -0.5421050190925598
      ],
      "type": "VEC3"
    },
    {
      "bufferView": 1,
      "byteOffset": 14460612,
      "componentType": 5126,
      "count": 25475,
      "max": [
        0.9999576210975647,
        0.99905925989151,
        0.8775280117988586
      ],
      "min": [
        -0.9997742176055908,
        -0.9999336004257202,
        -0.998487114906311
      ],
      "type": "VEC3"
    },
    {
      "bufferView": 2,
      "byteOffset": 9436608,
      "componentType": 5126,
      "count": 25475,
      "max": [
        0.9372549057006836,
        0.615686297416687,
        0.33725491166114807,
        1.0
      ],
      "min": [
        0.5490196347236633,
        0.16078431904315948,
        0.0784313753247261,
        1.0
      ],
      "type": "VEC4"
    },
    {
      "bufferView": 0,
      "byteOffset": 11522232,
      "componentType": 5125,
      "count": 99660,
      "type": "SCALAR"
    }
  ],
  "asset": {
    "extras": {
      "author": "taylorchavez (https://sketchfab.com/taylorchavez)",
      "license": "CC-BY-4.0 (http://creativecommons.org/licenses/by/4.0/)",
      "source": "https://sketchfab.com/3d-models/strawberry-e66e65af490642d9956a83d330320c01",
      "title": "Strawberry"
    },
    "generator": "Sketchfab-12.67.0",
    "version": "2.0"
  },
  "bufferViews": [
    {
      "buffer": 0,
      "byteLength": 11920872,
      "name": "floatBufferViews",
      "target": 34963
    },
    {
      "buffer": 0,
      "byteLength": 14766312,
      "byteOffset": 11920872,
      "byteStride": 12,
      "name": "floatBufferViews",
      "target": 34962
    },
    {
      "buffer": 0,
      "byteLength": 9844208,
      "byteOffset": 26687184,
      "byteStride": 16,
      "name": "floatBufferViews",
      "target": 34962
    }
  ],
  "buffers": [
    {
      "byteLength": 36531392,
      "uri": "scene.bin"
    }
  ],
  "materials": [
    {
      "doubleSided": true,
      "name": "Scene_-_Root",
      "pbrMetallicRoughness": {
        "metallicFactor": 0.0,
        "roughnessFactor": 0.4
      }
    }
  ],
  "meshes": [
    {
      "name": "Object_0",
      "primitives": [
        {
          "attributes": {
            "COLOR_0": 2,
            "NORMAL": 1,
            "POSITION": 0
          },
          "indices": 3,
          "material": 0,
          "mode": 4
        }
      ]
    },
    {
      "name": "Object_1",
      "primitives": [
        {
          "attributes": {
            "COLOR_0": 6,
            "NORMAL": 5,
            "POSITION": 4
          },
          "indices": 7,
          "material": 0,
          "mode": 4
        }
      ]
    },
    {
      "name": "Object_2",
      "primitives": [
        {
          "attributes": {
            "COLOR_0": 10,
            "NORMAL": 9,
            "POSITION": 8
          },
          "indices": 11,
          "material": 0,
          "mode": 4
        }
      ]
    },
    {
      "name": "Object_3",
      "primitives": [
        {
          "attributes": {
            "COLOR_0": 14,
            "NORMAL": 13,
            "POSITION": 12
          },
          "indices": 15,
          "material": 0,
          "mode": 4
        }
      ]
    },
    {
      "name": "Object_4",
      "primitives": [
        {
          "attributes": {
            "COLOR_0": 18,
            "NORMAL": 17,
            "POSITION": 16
          },
          "indices": 19,
          "material": 0,
          "mode": 4
        }
      ]
    },
    {
      "name": "Object_5",
      "primitives": [
        {
          "attributes": {
            "COLOR_0": 22,
            "NORMAL": 21,
            "POSITION": 20
          },
          "indices": 23,
          "material": 0,
          "mode": 4
        }
      ]
    },
    {
      "name": "Object_6",
      "primitives": [
        {
          "attributes": {
            "COLOR_0": 26,
            "NORMAL": 25,
            "POSITION": 24
          },
          "indices": 27,
          "material": 0,
          "mode": 4
        }
      ]
    },
    {
      "name": "Object_7",
      "primitives": [
        {
          "attributes": {
            "COLOR_0": 30,
            "NORMAL": 29,
            "POSITION": 28
          },
          "indices": 31,
          "material": 0,
          "mode": 4
        }
      ]
    },
    {
      "name": "Object_8",
      "primitives": [
        {
          "attributes": {
            "COLOR_0": 34,
            "NORMAL": 33,
            "POSITION": 32
          },
          "indices": 35,
          "material": 0,
          "mode": 4
        }
      ]
    },
    {
      "name": "Object_9",
      "primitives": [
        {
          "attributes": {
            "COLOR_0": 38,
            "NORMAL": 37,
            "POSITION": 36
          },
          "indices": 39,
          "material": 0,
          "mode": 4
        }
      ]
    }
  ],
  "nodes": [
    {
      "children": [
        1
      ],
      "matrix": [
        -2.220446049250313e-16,
        -1.6081226229577292e-16,
        1.0,
        0.0,
        1.0,
        2.2204460492503126e-16,
        2.2204460492503136e-16,
        0.0,
        -2.220446049250313e-16,
        1.0,
        1.6081226229577292e-16,
        0.0,
        -1.7074182033538818,
        -2.6258100774222116e-16,
        1.6825597286224365,
        1.0
      ],
      "name": "Sketchfab_model"
    },
    {
      "children": [
        2,
        3,
        4,
        5,
        6,
        7,
        8,
        9,
        10,
        11
      ],
      "name": "Geode"
    },
    {
      "mesh": 0,
      "name": "Object_2"
    },
    {
      "mesh": 1,
      "name": "Object_3"
    },
    {
      "mesh": 2,
      "name": "Object_4"
    },
    {
      "mesh": 3,
      "name": "Object_5"
    },
    {
      "mesh": 4,
      "name": "Object_6"
    },
    {
      "mesh": 5,
      "name": "Object_7"
    },
    {
      "mesh": 6,
      "name": "Object_8"
    },
    {
      "mesh": 7,
      "name": "Object_9"
    },
    {
      "mesh": 8,
      "name": "Object_10"
    },
    {
      "mesh": 9,
      "name": "Object_11"
    }
  ],
  "scene": 0,
  "scenes": [
    {
      "name": "Sketchfab_Scene",
      "nodes": [
        0
      ]
    }
  ]
}
