{
  "accessors": [
    {
      "bufferView": 2,
      "componentType": 5126,
      "count": 1167,
      "max": [
        0.023991674184799194,
        0.02900349535048008,
        0.02452540583908558
      ],
      "min": [
        -0.024195080623030663,
        -0.026739437133073807,
        -0.025073617696762085
      ],
      "type": "VEC3"
    },
    {
      "bufferView": 2,
      "byteOffset": 14004,
      "componentType": 5126,
      "count": 1167,
      "max": [
        0.9987010359764099,
        0.9995043277740479,
        0.9986030459403992
      ],
      "min": [
        -0.9989830851554871,
        -0.9996658563613892,
        -0.9938437938690186
      ],
      "type": "VEC3"
    },
    {
      "bufferView": 3,
      "componentType": 5126,
      "count": 1167,
      "max": [
        0.9982161521911621,
        0.7826933264732361,
        0.9282826781272888,
        1.0
      ],
      "min": [
        -0.9988614320755005,
        -0.9998165965080261,
        -0.9952271580696106,
        1.0
      ],
      "type": "VEC4"
    },
    {
      "bufferView": 1,
      "componentType": 5126,
      "count": 1167,
      "max": [
        0.9938401579856873,
        0.9947243928909302
      ],
      "min": [
        0.009069859981536865,
        0.005434989929199219
      ],
      "type": "VEC2"
    },
    {
      "bufferView": 1,
      "byteOffset": 9336,
      "componentType": 5126,
      "count": 1167,
      "max": [
        0.9938401579856873,
        0.9947243928909302
      ],
      "min": [
        0.009069859981536865,
        0.005434989929199219
      ],
      "type": "VEC2"
    },
    {
      "bufferView": 1,
      "byteOffset": 18672,
      "componentType": 5126,
      "count": 1167,
      "max": [
        0.9938401579856873,
        0.9947243928909302
      ],
      "min": [
        0.009069859981536865,
        0.005434989929199219
      ],
      "type": "VEC2"
    },
    {
      "bufferView": 0,
      "componentType": 5125,
      "count": 6528,
      "type": "SCALAR"
    }
  ],
  "asset": {
    "extras": {
      "author": "Meerschaum Digital (https://sketchfab.com/meerschaumdigital)",
      "license": "CC-BY-4.0 (http://creativecommons.org/licenses/by/4.0/)",
      "source": "https://sketchfab.com/3d-models/lime-game-ready-2k-pbr-d879c2985526427b96a39733dc2a075c",
      "title": "Lime (Game Ready / 2K PBR)"
    },
    "generator": "Sketchfab-12.68.0",
    "version": "2.0"
  },
  "bufferViews": [
    {
      "buffer": 0,
      "byteLength": 26112,
      "name": "floatBufferViews",
      "target": 34963
    },
    {
      "buffer": 0,
      "byteLength": 28008,
      "byteOffset": 26112,
      "byteStride": 8,
      "name": "floatBufferViews",
      "target": 34962
    },
    {
      "buffer": 0,
      "byteLength": 28008,
      "byteOffset": 54120,
      "byteStride": 12,
      "name": "floatBufferViews",
      "target": 34962
    },
    {
      "buffer": 0,
      "byteLength": 18672,
      "byteOffset": 82128,
      "byteStride": 16,
      "name": "floatBufferViews",
      "target": 34962
    }
  ],
  "buffers": [
    {
      "byteLength": 100800,
      "uri": "scene.bin"
    }
  ],
  "images": [
    {
      "uri": "textures/Lime_PBR_baseColor.jpeg"
    },
    {
      "uri": "textures/Lime_PBR_metallicRoughness.png"
    },
    {
      "uri": "textures/Lime_PBR_normal.jpeg"
    }
  ],
  "materials": [
    {
      "doubleSided": true,
      "name": "Lime_PBR",
      "normalTexture": {
        "index": 2
      },
      "occlusionTexture": {
        "index": 1
      },
      "pbrMetallicRoughness": {
        "baseColorTexture": {
          "index": 0
        },
        "metallicFactor": 0.0,
        "metallicRoughnessTexture": {
          "index": 1
        }
      }
    }
  ],
  "meshes": [
    {
      "name": "Lime_Lime PBR_0",
      "primitives": [
        {
          "attributes": {
            "NORMAL": 1,
            "POSITION": 0,
            "TANGENT": 2,
            "TEXCOORD_0": 3,
            "TEXCOORD_1": 4,
            "TEXCOORD_2": 5
          },
          "indices": 6,
          "material": 0,
          "mode": 4
        }
      ]
    }
  ],
  "nodes": [
    {
      "children": [
        1
      ],
      "matrix": [
        1.0,
        0.0,
        0.0,
        0.0,
        0.0,
        -0.21275697648525216,
        -0.9771051406860352,
        0.0,
        0.0,
        0.9771051406860352,
        -0.21275697648525216,
        0.0,
        0.0,
        -0.014679086394608023,
        0.0069647035561501945,
        1.0
      ],
      "name": "Sketchfab_model"
    },
    {
      "children": [
        2
      ],
      "matrix": [
        0.009999999776482582,
        0.0,
        0.0,
        0.0,
        0.0,
        0.0,
        0.009999999776482582,
        0.0,
        0.0,
        -0.009999999776482582,
        0.0,
        0.0,
        0.0,
        0.0,
        0.0,
        1.0
      ],
      "name": "3b0551af7b6d41bfa9801d3a520a9b8a.fbx"
    },
    {
      "children": [
        3
      ],
      "name": "RootNode"
    },
    {
      "children": [
        4
      ],
      "matrix": [
        100.0,
        0.0,
        0.0,
        0.0,
        0.0,
        -1.629206793918314e-05,
        -99.99999999999868,
        0.0,
        0.0,
        99.99999999999868,
        -1.629206793918314e-05,
        0.0,
        1.673956036567688,
        2.529533863067627,
        7.281915664672852,
        1.0
      ],
      "name": "Lime"
    },
    {
      "mesh": 0,
      "name": "Lime_Lime PBR_0"
    }
  ],
  "samplers": [
    {
      "magFilter": 9729,
      "minFilter": 9987,
      "wrapS": 10497,
      "wrapT": 10497
    }
  ],
  "scene": 0,
  "scenes": [
    {
      "name": "Sketchfab_Scene",
      "nodes": [
        0
      ]
    }
  ],
  "textures": [
    {
      "sampler": 0,
      "source": 0
    },
    {
      "sampler": 0,
      "source": 1
    },
    {
      "sampler": 0,
      "source": 2
    }
  ]
}
